<svg width="500" height="500" viewBox="0 0 500 500" fill="none" xmlns="http://www.w3.org/2000/svg">
<circle cx="250" cy="250" r="226" stroke="black" stroke-width="20"/>
<path d="M92.5 403L192 279.5L246 368.5M300.848 463.5L246 368.5M246 368.5L317 288.5L401 410" stroke="black" stroke-width="19"/>
<path d="M280.622 214.952C256.94 212.29 237.605 192.967 234.926 169.291C234.304 163.798 234.568 158.469 235.567 153.399C236.013 151.137 233.699 149.334 231.578 150.238C211.485 158.792 197.89 179.649 200.27 203.354C202.69 227.454 222.419 247.182 246.518 249.602C270.229 251.988 291.08 238.387 299.634 218.294C300.538 216.174 298.735 213.859 296.473 214.305C291.415 215.298 286.098 215.563 280.622 214.952Z" stroke="black" stroke-width="15"/>
</svg>
