<svg width="500" height="500" viewBox="0 0 500 500" fill="none" xmlns="http://www.w3.org/2000/svg">
<circle cx="250" cy="250" r="226" stroke="black" stroke-width="20"/>
<path d="M119.772 206.81V206.615C119.772 187.332 125.483 168.481 136.184 152.44C146.885 136.4 162.098 123.888 179.903 116.483C197.707 109.079 217.306 107.114 236.226 110.836C255.146 114.557 272.54 123.8 286.214 137.396C296.972 132.086 308.989 129.854 320.936 130.945C332.884 132.037 344.297 136.41 353.915 143.581C363.533 150.752 370.981 160.443 375.437 171.582C379.892 182.721 381.182 194.875 379.163 206.702C382.131 206.977 385.011 207.861 387.622 209.299C390.234 210.737 392.52 212.698 394.34 215.059C396.16 217.42 397.473 220.131 398.199 223.022C398.924 225.914 399.046 228.924 398.556 231.864C388.751 290.844 364.5 328.176 325.845 343.881V358.458C325.845 367.087 322.417 375.364 316.315 381.466C310.213 387.568 301.936 390.996 293.307 390.996H206.539C197.91 390.996 189.634 387.568 183.532 381.466C177.43 375.364 174.002 367.087 174.002 358.458V343.881C135.347 328.176 111.095 290.844 101.29 231.864C100.817 229.002 100.923 226.074 101.602 223.253C102.28 220.432 103.518 217.776 105.241 215.442C106.964 213.108 109.138 211.143 111.634 209.665C114.13 208.186 116.897 207.222 119.772 206.832V206.81ZM141.464 206.615H163.156C163.156 192.232 168.869 178.439 179.039 168.269C189.209 158.099 203.003 152.385 217.385 152.385C231.768 152.385 245.561 158.099 255.732 168.269C265.902 178.439 271.615 192.232 271.615 206.615H293.307C293.307 186.479 285.308 167.168 271.07 152.93C256.832 138.692 237.521 130.693 217.385 130.693C197.25 130.693 177.939 138.692 163.701 152.93C149.463 167.168 141.464 186.479 141.464 206.615ZM184.848 206.615H249.923C249.923 197.985 246.495 189.709 240.393 183.607C234.291 177.505 226.015 174.077 217.385 174.077C208.756 174.077 200.48 177.505 194.378 183.607C188.276 189.709 184.848 197.985 184.848 206.615ZM333.784 206.615H357.016C358.653 200.204 358.806 193.505 357.462 187.026C356.118 180.548 353.313 174.461 349.261 169.231C345.209 164.001 340.016 159.765 334.078 156.845C328.141 153.926 321.615 152.401 314.999 152.385C309.793 152.385 304.847 153.296 300.248 154.967C304.088 161.127 307.255 167.765 309.684 174.728C313.816 173.703 318.157 173.914 322.17 175.335C326.183 176.755 329.69 179.323 332.257 182.719C334.823 186.115 336.336 190.189 336.608 194.437C336.879 198.686 335.897 202.92 333.784 206.615ZM304.153 347.612H195.693V358.458C195.693 361.334 196.836 364.093 198.87 366.127C200.904 368.161 203.663 369.304 206.539 369.304H293.307C296.183 369.304 298.942 368.161 300.976 366.127C303.01 364.093 304.153 361.334 304.153 358.458V347.612ZM188.058 325.92H311.788C346.192 314.857 367.97 283.578 377.168 228.307H122.679C131.876 283.578 153.655 314.857 188.058 325.92Z" fill="black"/>
</svg>
