<svg width="500" height="500" viewBox="0 0 500 500" fill="none" xmlns="http://www.w3.org/2000/svg">
<circle cx="250" cy="250" r="226" stroke="black" stroke-width="20"/>
<path d="M356.897 212.929C354.213 212.223 351.429 213.603 350.36 216.157C338.632 244.139 311.45 262.22 281.111 262.22C239.727 262.22 206.06 228.553 206.06 187.169C206.06 150.208 233.588 118.288 270.092 112.921C272.836 112.518 274.863 110.153 274.842 107.38C274.821 104.605 272.759 102.272 270.009 101.91C265.429 101.306 260.747 101 256.094 101C197.85 101 150.793 148.384 150.793 206.627C150.793 257.241 185.865 299.635 234.509 309.879V324.877C230.34 326.804 228.95 330.387 228.95 334.491C228.95 338.596 230.339 342.179 234.509 344.106V396.617C227.56 398.914 223.064 405.077 223.064 412.322C223.064 421.519 230.382 429 239.578 429C248.775 429 256.501 421.519 256.501 412.322C256.501 405.077 251.187 398.914 245.628 396.617V344.106C248.407 342.179 251.187 338.596 251.187 334.491C251.187 330.387 248.407 326.804 245.628 324.877V311.665C248.407 312.049 252.664 312.254 256.42 312.254C310.048 312.254 354.989 272.142 361.172 218.948C361.492 216.197 359.575 213.631 356.897 212.929ZM239.416 417.881C236.35 417.881 233.856 415.388 233.856 412.322C233.856 409.256 236.35 406.763 239.416 406.763C242.481 406.763 244.975 409.256 244.975 412.322C244.975 415.388 242.481 417.881 239.416 417.881ZM256.094 301.136C203.982 301.136 161.585 258.739 161.585 206.628C161.585 161.799 192.959 124.16 234.902 114.515C210.781 129.994 194.941 157.133 194.941 187.17C194.941 234.684 233.597 273.339 281.111 273.339C303.529 273.339 324.444 264.741 340.095 250.047C324.293 280.624 292.375 301.136 256.094 301.136Z" fill="black" stroke="black" stroke-width="3"/>
</svg>
