<svg width="500" height="500" viewBox="0 0 500 500" fill="none" xmlns="http://www.w3.org/2000/svg">
<circle cx="250" cy="250" r="226" stroke="black" stroke-width="20"/>
<path d="M389 338C396.732 338 403 344.268 403 352C403 359.732 396.732 366 389 366H94C86.268 366 80 359.732 80 352C80 344.268 86.268 338 94 338H389Z" fill="black"/>
<path d="M279.503 318.537C279.381 312.187 284.43 306.94 290.78 306.819L355.049 305.588C361.399 305.467 366.645 310.516 366.767 316.866C366.888 323.216 361.839 328.463 355.489 328.584L291.22 329.814C284.87 329.935 279.624 324.887 279.503 318.537Z" fill="black"/>
<path d="M286.968 232.186C247.093 214.032 205.744 198.956 162.549 190.993C130.211 185.039 116.126 225.793 135.043 243.413C136.445 246.447 138.607 249.47 141.723 252.323C152.348 262.067 162.103 272.803 171.407 283.926C155.687 285.513 139.863 286.294 124.551 284.936C99.5413 282.709 91.0733 321.226 116.313 323.477C147.396 326.242 178.948 322.962 209.779 318.721C223.368 316.855 234.929 300.895 225.036 288.135C219.227 280.65 213.33 273.119 207.283 265.697C221.796 270.616 236.081 276.266 250.24 282.455C260.39 295.215 269.733 308.563 278.02 322.709C287.707 339.258 312.44 322.748 302.774 306.226C298.416 298.786 293.718 291.603 288.81 284.584C306.252 272.793 311.659 243.442 286.968 232.186Z" fill="#010002"/>
<path d="M337.556 298.993C353.664 298.993 366.723 285.935 366.723 269.826C366.723 253.718 353.664 240.659 337.556 240.659C321.448 240.659 308.389 253.718 308.389 269.826C308.389 285.935 321.448 298.993 337.556 298.993Z" fill="#010002"/>
</svg>
