<svg width="26" height="26" viewBox="0 0 26 26" fill="none" xmlns="http://www.w3.org/2000/svg">
<path opacity="0.4" d="M20.5184 5.8716L14.9176 2.63244C13.8451 2.01494 12.1659 2.01494 11.0934 2.63244L5.43842 5.89327C3.19592 7.40994 3.06592 7.63744 3.06592 10.0533V15.9357C3.06592 18.3516 3.19592 18.5899 5.48175 20.1282L11.0826 23.3674C11.6243 23.6816 12.3176 23.8332 13.0001 23.8332C13.6826 23.8332 14.3759 23.6816 14.9068 23.3674L20.5618 20.1066C22.8043 18.5899 22.9343 18.3624 22.9343 15.9466V10.0533C22.9343 7.63744 22.8043 7.40994 20.5184 5.8716Z" fill="#FFEAAC"/>
<path d="M13 16.5208C14.9445 16.5208 16.5208 14.9445 16.5208 13C16.5208 11.0555 14.9445 9.47917 13 9.47917C11.0555 9.47917 9.47917 11.0555 9.47917 13C9.47917 14.9445 11.0555 16.5208 13 16.5208Z" fill="#FFEAAC"/>
</svg>
