<svg width="500" height="500" viewBox="0 0 500 500" fill="none" xmlns="http://www.w3.org/2000/svg">
<circle cx="250" cy="250" r="226" stroke="black" stroke-width="20"/>
<path d="M106.5 338V318M394 338V318M394 318V288C394 276.954 385.046 268 374 268H126.5C115.454 268 106.5 276.954 106.5 288V318M394 318H106.5" stroke="black" stroke-width="20" stroke-linecap="round"/>
<path d="M106.5 251.5V174.5" stroke="black" stroke-width="20" stroke-linecap="round"/>
<path d="M381.5 241H208.637C206.656 241 205.898 238.483 207.578 237.432C217.045 231.506 236.72 219.77 252 214.5C274.274 206.818 288.035 206.632 311.5 204.5C336.065 202.268 372.94 203.952 381.622 204.399C382.681 204.454 383.5 205.328 383.5 206.388V239C383.5 240.105 382.605 241 381.5 241Z" stroke="black" stroke-width="18" stroke-linecap="round"/>
<path d="M180.152 242.5H134.143C133.188 242.5 132.371 241.825 132.238 240.879C131.213 233.629 128.738 204.538 155 204.538C181.015 204.538 182.215 233.085 182.074 240.669C182.055 241.712 181.195 242.5 180.152 242.5Z" stroke="black" stroke-width="18" stroke-linecap="round"/>
</svg>
