<svg width="519" height="794" viewBox="0 0 519 794" fill="none" xmlns="http://www.w3.org/2000/svg">
<g clip-path="url(#clip0_50_12)">
<rect x="11" y="11" width="497" height="772" rx="60" fill="#FFEAAC"/>
<path d="M11 11H508V241H134.5C66.2928 241 11 185.707 11 117.5V11Z" fill="#53320D"/>
<path d="M508 301L250 301C230.67 301 215 285.33 215 266L215 261C215 252.716 221.716 246 230 246L508 246L508 301Z" fill="#53320D"/>
<path d="M53 411C53 389.461 70.4609 372 92 372H221C232.046 372 241 380.954 241 392V477C241 488.046 232.046 497 221 497H73C61.9543 497 53 488.046 53 477V411Z" fill="#53320D"/>
<path d="M52 569C52 547.461 69.4609 530 91 530H220C231.046 530 240 538.954 240 550V635C240 646.046 231.046 655 220 655H72C60.9543 655 52 646.046 52 635V569Z" fill="#53320D"/>
<path d="M279 411C279 389.461 296.461 372 318 372H447C458.046 372 467 380.954 467 392V477C467 488.046 458.046 497 447 497H299C287.954 497 279 488.046 279 477V411Z" fill="#53320D"/>
<path d="M278 569C278 547.461 295.461 530 317 530H446C457.046 530 466 538.954 466 550V635C466 646.046 457.046 655 446 655H298C286.954 655 278 646.046 278 635V569Z" fill="#53320D"/>
</g>
<rect x="5.5" y="5.5" width="508" height="783" rx="65.5" stroke="white" stroke-width="11"/>
<defs>
<clipPath id="clip0_50_12">
<rect x="11" y="11" width="497" height="772" rx="60" fill="white"/>
</clipPath>
</defs>
</svg>
