<svg width="52" height="52" viewBox="0 0 52 52" fill="none" xmlns="http://www.w3.org/2000/svg">
<g clip-path="url(#clip0_22_125)">
<path d="M49 26C49 13.2975 38.7025 3 26 3C13.2975 3 3 13.2975 3 26C3 38.7025 13.2975 49 26 49C38.7025 49 49 38.7025 49 26ZM52 26C52 40.3594 40.3594 52 26 52C11.6406 52 0 40.3594 0 26C0 11.6406 11.6406 0 26 0C40.3594 0 52 11.6406 52 26Z" fill="#FFEAAC"/>
<path d="M37.1172 22.1446C36.8381 22.0712 36.5487 22.2148 36.4375 22.4803C35.2178 25.3905 32.3908 27.2709 29.2356 27.2709C24.9317 27.2709 21.4302 23.7695 21.4302 19.4656C21.4302 15.6216 24.2931 12.302 28.0895 11.7439C28.3749 11.7019 28.5857 11.456 28.5836 11.1675C28.5814 10.879 28.3669 10.6363 28.0809 10.5986C27.6046 10.5359 27.1177 10.504 26.6337 10.504C20.5764 10.504 15.6824 15.4319 15.6824 21.4892C15.6824 26.7531 19.33 31.1621 24.3889 32.2274V33.7872C23.9553 33.9877 23.8108 34.3603 23.8108 34.7871C23.8108 35.214 23.9553 35.5866 24.3889 35.7871V41.2482C23.6662 41.4871 23.1986 42.128 23.1986 42.8815C23.1986 43.838 23.9597 44.616 24.9161 44.616C25.8726 44.616 26.6761 43.838 26.6761 42.8815C26.6761 42.128 26.1234 41.4871 25.5453 41.2482V35.7871C25.8344 35.5867 26.1234 35.214 26.1234 34.7871C26.1234 34.3602 25.8344 33.9876 25.5453 33.7872V32.4132C25.8344 32.4531 26.2771 32.4744 26.6676 32.4744C32.245 32.4744 36.9188 28.3028 37.5619 22.7706C37.5951 22.4845 37.3958 22.2176 37.1172 22.1446ZM24.8992 43.4597C24.5804 43.4597 24.321 43.2004 24.321 42.8815C24.321 42.5626 24.5804 42.3033 24.8992 42.3033C25.218 42.3033 25.4774 42.5626 25.4774 42.8815C25.4774 43.2004 25.218 43.4597 24.8992 43.4597ZM26.6337 31.3181C21.2141 31.3181 16.8049 26.9089 16.8049 21.4893C16.8049 16.8271 20.0677 12.9127 24.4298 11.9095C21.9212 13.5194 20.2739 16.3418 20.2739 19.4657C20.2739 24.4071 24.294 28.4273 29.2355 28.4273C31.567 28.4273 33.7422 27.533 35.3699 26.0049C33.7264 29.1849 30.407 31.3181 26.6337 31.3181Z" fill="#FFEAAC"/>
<path d="M21.1805 19.4659C21.1805 15.4983 24.1341 12.0724 28.0535 11.4962C28.2153 11.4722 28.335 11.3326 28.3338 11.1691C28.3324 11.0055 28.2106 10.8683 28.0486 10.8468C27.5832 10.7855 27.1067 10.754 26.6336 10.754C20.7155 10.7541 15.9324 15.5692 15.9324 21.4894C15.9325 26.6338 19.4961 30.9413 24.4402 31.9825L24.6385 32.0245V33.9474L24.494 34.0138C24.3248 34.092 24.2216 34.1977 24.158 34.3185C24.0922 34.4435 24.0604 34.6004 24.0604 34.7872C24.0604 34.9741 24.0922 35.131 24.158 35.256C24.2216 35.3767 24.3248 35.4815 24.494 35.5597L24.6385 35.6271V41.4288L24.4676 41.4855C23.8457 41.691 23.449 42.238 23.449 42.882C23.4493 43.7033 24.101 44.3662 24.9158 44.3663C25.7388 44.3663 26.4263 43.6954 26.4266 42.882C26.4266 42.2483 25.9528 41.6875 25.45 41.4796L25.2957 41.4152V35.6564L25.4031 35.5812C25.6517 35.4087 25.8738 35.1038 25.8738 34.7872C25.8738 34.4705 25.6519 34.1648 25.4031 33.9923L25.2957 33.9181V32.1261L25.5799 32.1652C25.853 32.2028 26.2829 32.2247 26.6678 32.2247C32.118 32.2247 36.6849 28.1476 37.3133 22.7413C37.3307 22.5901 37.2225 22.4311 37.0535 22.3868C36.8953 22.3452 36.731 22.4264 36.6678 22.5773C35.4091 25.5802 32.491 27.5206 29.2352 27.5206C24.7935 27.5204 21.1807 23.9076 21.1805 19.4659ZM25.2274 42.882C25.2274 42.7012 25.08 42.5529 24.8992 42.5529C24.7185 42.5529 24.5711 42.7012 24.5711 42.882C24.5713 43.0625 24.7186 43.2101 24.8992 43.2101C25.0798 43.2101 25.2271 43.0625 25.2274 42.882ZM20.0242 19.4659C20.0242 16.7597 21.225 14.274 23.1443 12.5695C19.583 13.9675 17.0545 17.4389 17.0545 21.4894C17.0546 26.7708 21.3521 31.0684 26.6336 31.0685C29.8126 31.0685 32.6596 29.5133 34.408 27.09C32.9147 28.1027 31.1254 28.6769 29.2352 28.6769C24.1559 28.6767 20.0244 24.5452 20.0242 19.4659ZM25.7274 42.882C25.7271 43.3387 25.3559 43.7101 24.8992 43.7101C24.4425 43.7101 24.0713 43.3387 24.0711 42.882C24.0711 42.425 24.4424 42.0529 24.8992 42.0529C25.3561 42.0529 25.7274 42.425 25.7274 42.882ZM20.5242 19.4659C20.5244 24.2691 24.432 28.1767 29.2352 28.1769C31.5021 28.1769 33.6169 27.3077 35.199 25.8224L35.5916 26.1193C33.9063 29.38 30.5028 31.5685 26.6336 31.5685C21.076 31.5684 16.5546 27.047 16.5545 21.4894C16.5545 16.708 19.901 12.6947 24.3738 11.6661L24.5652 12.1202C22.1252 13.6861 20.5242 16.4309 20.5242 19.4659ZM21.6805 19.4659C21.6807 23.6315 25.0696 27.0204 29.2352 27.0206C32.2896 27.0206 35.026 25.2011 36.2068 22.3839C36.366 22.0038 36.7806 21.7975 37.1805 21.9025C37.5685 22.0042 37.8593 22.3791 37.8104 22.7999C37.1525 28.4577 32.3721 32.7247 26.6678 32.7247C26.3818 32.7247 26.0647 32.7126 25.7957 32.6906V33.6642C26.0904 33.9076 26.3738 34.3088 26.3738 34.7872C26.3738 35.2654 26.0902 35.6659 25.7957 35.9093V41.0909C26.3904 41.4038 26.9266 42.0784 26.9266 42.882C26.9263 43.981 26.0055 44.8663 24.9158 44.8663C23.8185 44.8662 22.9493 43.973 22.949 42.882C22.949 42.0806 23.4129 41.3889 24.1385 41.0763V35.9337C23.9502 35.8175 23.8097 35.6671 23.7156 35.4884C23.6009 35.2703 23.5604 35.0271 23.5604 34.7872C23.5604 34.5474 23.6009 34.3041 23.7156 34.0861C23.8099 33.9071 23.9498 33.7551 24.1385 33.6388V32.4249C19.0689 31.2628 15.4325 26.803 15.4324 21.4894C15.4324 15.2951 20.4373 10.2541 26.6336 10.254C27.1284 10.254 27.6268 10.2865 28.1141 10.3507C28.5234 10.4048 28.8304 10.7523 28.8338 11.1652V11.1661C28.8366 11.5791 28.5344 11.9312 28.1258 11.9913C24.4525 12.5314 21.6805 15.7457 21.6805 19.4659Z" fill="#FFEAAC"/>
</g>
<defs>
<clipPath id="clip0_22_125">
<rect width="52" height="52" fill="white"/>
</clipPath>
</defs>
</svg>
