<svg width="60" height="60" viewBox="0 0 60 60" fill="none" xmlns="http://www.w3.org/2000/svg">
<path d="M30 57.12C44.978 57.12 57.12 44.978 57.12 30C57.12 15.022 44.978 2.88 30 2.88C15.022 2.88 2.88 15.022 2.88 30C2.88 44.978 15.022 57.12 30 57.12Z" stroke="#FFEAAC" stroke-width="3"/>
<path d="M28.5283 11.8278C28.9884 10.8511 30.3625 10.8095 30.8806 11.7567L32.2627 14.2831C32.5481 14.8047 33.147 15.0713 33.7256 14.934L36.5275 14.2688C37.5779 14.0195 38.4671 15.0679 38.0496 16.0635L36.9361 18.7193C36.7062 19.2677 36.8713 19.9021 37.3394 20.2688L39.6064 22.0447C40.4562 22.7106 40.1909 24.0595 39.1523 24.3539L36.3816 25.139C35.8094 25.3011 35.4164 25.8259 35.4216 26.4205L35.4466 29.3001C35.4559 30.3797 34.2359 31.0133 33.3581 30.3848L31.0166 28.7082C30.5333 28.362 29.878 28.3818 29.4163 28.7565L27.1805 30.5714C26.3423 31.2518 25.0861 30.6931 25.0303 29.6149L24.8813 26.739C24.8506 26.1452 24.4265 25.6452 23.8456 25.518L21.0326 24.9014C19.9781 24.6704 19.6318 23.3399 20.4398 22.6241L22.5954 20.7144C23.0406 20.3202 23.1671 19.6769 22.9044 19.1433L21.6325 16.5597C21.1556 15.5911 21.9799 14.4909 23.0435 14.6763L25.8805 15.171C26.4662 15.2732 27.0481 14.9711 27.3014 14.4331L28.5283 11.8278Z" fill="#FFEAAC"/>
<path d="M29.9935 27.2335C33.241 27.2335 35.8735 24.6009 35.8735 21.3535C35.8735 18.1061 33.241 15.4735 29.9935 15.4735C26.7461 15.4735 24.1135 18.1061 24.1135 21.3535C24.1135 24.6009 26.7461 27.2335 29.9935 27.2335Z" fill="#48530D"/>
<path d="M11.1 48.36L23.04 33.54L29.52 44.22M29.52 44.22L36.1018 55.62M29.52 44.22L38.04 34.62L48.12 49.2" stroke="#FFEAAC" stroke-width="3"/>
</svg>
