<svg width="57" height="57" viewBox="0 0 57 57" fill="none" xmlns="http://www.w3.org/2000/svg">
<path d="M28.5 54.264C42.7291 54.264 54.264 42.7291 54.264 28.5C54.264 14.271 42.7291 2.73602 28.5 2.73602C14.2709 2.73602 2.736 14.271 2.736 28.5C2.736 42.7291 14.2709 54.264 28.5 54.264Z" stroke="#FFEAAC" stroke-width="3"/>
<path d="M12.141 38.532V36.252M12.141 36.252V32.832C12.141 31.5728 13.1618 30.552 14.421 30.552H42.636C43.8952 30.552 44.916 31.5728 44.916 32.832V36.252M12.141 36.252H44.916M44.916 38.532V36.252" stroke="#FFEAAC" stroke-width="2" stroke-linecap="round"/>
<path d="M12.141 27.671V18.893" stroke="#FFEAAC" stroke-width="2" stroke-linecap="round"/>
<path d="M43.491 27.474H23.7846C23.5588 27.474 23.4724 27.1871 23.6639 27.0672C24.7431 26.3917 26.9861 25.0538 28.728 24.453C31.2672 23.5772 32.836 23.556 35.511 23.313C38.3114 23.0585 42.5152 23.2505 43.5049 23.3015C43.6256 23.3078 43.719 23.4074 43.719 23.5282V27.246C43.719 27.372 43.617 27.474 43.491 27.474Z" stroke="#FFEAAC" stroke-width="1.5" stroke-linecap="round"/>
<path d="M20.5373 27.645H15.2923C15.1834 27.645 15.0903 27.568 15.0751 27.4602C14.9583 26.6337 14.6761 23.3173 17.67 23.3173C20.6357 23.3173 20.7725 26.5717 20.7564 27.4363C20.7543 27.5552 20.6562 27.645 20.5373 27.645Z" stroke="#FFEAAC" stroke-width="1.5" stroke-linecap="round"/>
</svg>
