<svg width="58" height="58" viewBox="0 0 58 58" fill="none" xmlns="http://www.w3.org/2000/svg">
<path d="M29 55.216C43.4787 55.216 55.216 43.4787 55.216 29C55.216 14.5213 43.4787 2.784 29 2.784C14.5213 2.784 2.784 14.5213 2.784 29C2.784 43.4787 14.5213 55.216 29 55.216Z" stroke="#FFEAAC" stroke-width="3"/>
<path fill-rule="evenodd" clip-rule="evenodd" d="M20.7437 31.7245C20.7437 31.7245 20.7438 31.7246 20.5755 32.6446L20.7437 31.7245L20.7603 31.7275L20.7766 31.7311L26.989 33.0987L27.0292 33.1075L27.0678 33.1196L27.0692 33.1201L27.0785 33.123L27.1218 33.136C27.1615 33.1476 27.2214 33.1648 27.2987 33.1858C27.4538 33.2281 27.6766 33.2848 27.9423 33.3416C28.4817 33.4572 29.1619 33.5652 29.797 33.5652C30.3733 33.5652 30.978 33.7747 31.3048 34.3617C31.5875 34.8697 31.521 35.4275 31.416 35.8103C31.2896 36.2721 31.0323 36.7554 30.7054 37.1702C31.1788 36.9945 31.6965 36.7862 32.2522 36.5627L32.3115 36.5388C33.8308 35.927 35.6303 35.2025 37.2185 34.9447C39.0254 34.6515 40.3478 35.2919 40.9516 36.4486C41.4912 37.482 41.3647 38.8388 40.5555 39.6531C40.3534 39.8563 40.0459 40.0694 39.7375 40.2657C39.408 40.4753 39.0022 40.7123 38.5511 40.9633C37.6478 41.466 36.5296 42.0439 35.4068 42.6027C33.1833 43.7094 30.8531 44.7851 30.1133 45.051C28.8482 45.5056 27.3768 45.36 26.0247 45.2261C25.9834 45.222 25.9422 45.2179 25.9012 45.2139C25.4974 45.174 25.0935 45.1342 24.6802 45.1034C22.8769 44.9695 21.495 44.5385 20.2179 44.1401L20.1953 44.133C18.8212 43.7045 17.5656 43.316 15.8794 43.2494C15.6489 43.2404 15.1787 43.2473 14.626 43.2621C14.3124 44.469 13.2155 45.3602 11.9103 45.3602H10.3388C8.78919 45.3602 7.533 44.1039 7.533 42.5543V34.342C7.533 32.7924 8.78918 31.5363 10.3388 31.5363H11.9103C12.9178 31.5363 13.8005 32.0668 14.2954 32.8637C15.4845 32.4418 16.7739 31.9745 17.1846 31.7907C17.559 31.6232 17.9918 31.5664 18.3522 31.5459C18.7313 31.5244 19.1248 31.5392 19.4694 31.5654C19.8171 31.5918 20.1325 31.6312 20.3604 31.6637C20.4749 31.68 20.5684 31.6948 20.6344 31.7057C20.6675 31.7111 20.6937 31.7157 20.7121 31.7189L20.7341 31.7227L20.7405 31.7239L20.7425 31.7242L20.7437 31.7245ZM22.7111 37.7239L22.5463 38.6446L22.7222 36.7887L27.7375 36.8483L27.7489 36.8484C27.7531 36.8482 27.7602 36.8477 27.7702 36.8469C27.8047 36.8438 27.8739 36.8351 27.9715 36.8103C28.165 36.7611 28.4812 36.6458 28.8721 36.372C29.0068 36.2775 29.1705 36.1129 29.3192 35.9009C29.4342 35.7368 29.5201 35.573 29.5736 35.4324C28.8283 35.411 28.0973 35.2879 27.5506 35.1707C27.246 35.1055 26.9896 35.0403 26.8078 34.9908C26.7169 34.9661 26.6442 34.9452 26.5931 34.9301C26.5765 34.9253 26.5623 34.921 26.5503 34.9174L20.3931 33.562L20.3906 33.5616C20.3775 33.5592 20.3568 33.5558 20.3297 33.5512C20.2756 33.5423 20.1955 33.5297 20.0961 33.5154C19.8962 33.487 19.6233 33.453 19.3278 33.4305C19.0295 33.4079 18.7252 33.3982 18.4582 33.4134C18.1724 33.4296 18.0106 33.4704 17.9483 33.4982C17.3454 33.7679 15.3659 34.4717 14.0673 34.9278L13.0102 35.299L12.8339 34.1926C12.7629 33.7473 12.3756 33.4068 11.9103 33.4068H10.3388C9.82223 33.4068 9.4035 33.8255 9.4035 34.342V42.5543C9.4035 43.0709 9.82223 43.4897 10.3388 43.4897H11.9103C12.4268 43.4897 12.8456 43.0709 12.8456 42.5543V42.3526V41.449L13.7487 41.4179C14.5944 41.3888 15.5297 41.3637 15.9532 41.3804C17.8986 41.4573 19.3576 41.9124 20.7273 42.3396L20.7522 42.3474C22.0351 42.7475 23.2403 43.1209 24.8189 43.2382C25.2564 43.2706 25.6807 43.3125 26.0799 43.352L26.0847 43.3524C27.6042 43.5022 28.6561 43.5871 29.4807 43.2907C30.0999 43.0682 32.3319 42.0437 34.5735 40.9281C35.6832 40.3758 36.7733 39.8121 37.6415 39.3288C38.0762 39.0869 38.4469 38.8697 38.7332 38.6876C39.0406 38.492 39.1882 38.3753 39.2288 38.3345C39.3902 38.172 39.5062 37.7217 39.2936 37.3143C39.1452 37.03 38.7205 36.596 37.5181 36.7911C36.1574 37.012 34.541 37.6576 32.9507 38.2978L32.931 38.3057C32.1446 38.6223 31.3627 38.9371 30.6707 39.1653C30.0018 39.3859 29.2854 39.5729 28.674 39.5367C27.7941 39.4846 26.2423 39.2563 24.9537 39.0503C24.3 38.9459 23.6987 38.8445 23.261 38.7693C23.042 38.7317 22.8638 38.7006 22.7401 38.6788L22.5971 38.6536L22.5596 38.6469L22.5498 38.6451L22.5473 38.6447L22.7111 37.7239ZM29.6358 35.1769C29.6358 35.1769 29.6359 35.1776 29.6359 35.1792L29.6358 35.1769Z" fill="#FFEAAC"/>
<path fill-rule="evenodd" clip-rule="evenodd" d="M24.6874 19.949L23.9504 20.5248L23.2224 19.9377L23.962 19.0205L24.6874 19.949ZM23.9415 22.0973C23.8194 22.27 23.6908 22.4572 23.5626 22.652C23.2819 23.0789 23.0144 23.5253 22.8204 23.9286C22.611 24.3646 22.5475 24.6297 22.5475 24.7334C22.5475 25.5261 23.1575 26.1363 23.9504 26.1363C24.7431 26.1363 25.3532 25.5261 25.3532 24.7334C25.3532 24.6603 25.2962 24.413 25.0819 23.9713C24.8865 23.5688 24.6172 23.1169 24.3351 22.6825C24.2017 22.4771 24.0679 22.2794 23.9415 22.0973ZM23.9504 20.5248C23.2224 19.9377 23.2225 19.9375 23.2224 19.9377L23.2197 19.9411L23.2136 19.9485L23.1919 19.9759C23.1733 19.9992 23.1465 20.0331 23.113 20.0761C23.0457 20.1622 22.9506 20.2854 22.8369 20.4371C22.61 20.7395 22.3059 21.1591 22 21.624C21.6963 22.0857 21.3791 22.6095 21.1347 23.1182C20.9059 23.594 20.677 24.1825 20.677 24.7334C20.677 26.5592 22.1244 28.0068 23.9504 28.0068C25.7762 28.0068 27.2238 26.5592 27.2238 24.7334C27.2238 24.1985 26.9884 23.6157 26.7646 23.1544C26.5214 22.6537 26.2061 22.1294 25.9038 21.6638C25.5993 21.1947 25.2964 20.7678 25.0705 20.4591C24.9572 20.3043 24.8625 20.1782 24.7957 20.0903C24.7623 20.0462 24.7358 20.0116 24.7174 19.9877L24.6958 19.96L24.69 19.9522L24.6874 19.949C24.6872 19.9489 24.6874 19.949 23.9504 20.5248Z" fill="#FFEAAC"/>
<path fill-rule="evenodd" clip-rule="evenodd" d="M34.9863 13.4168L34.2381 13.9779L33.4899 13.4168L34.2381 12.4192L34.9863 13.4168ZM34.2381 15.5831C33.8651 16.1191 33.3962 16.8156 32.9284 17.5691C32.4124 18.4007 31.9082 19.285 31.5362 20.091C31.148 20.9323 30.9648 21.5617 30.9648 21.9275C30.9648 23.7491 32.4165 25.2009 34.2381 25.2009C36.0597 25.2009 37.5115 23.7491 37.5115 21.9275C37.5115 21.5617 37.3283 20.9323 36.94 20.091C36.5681 19.285 36.0639 18.4007 35.5478 17.5691C35.08 16.8156 34.6111 16.1191 34.2381 15.5831ZM34.2381 13.9779C33.4899 13.4168 33.49 13.4167 33.4899 13.4168L33.4859 13.422L33.4761 13.4353L33.439 13.4853C33.4068 13.5287 33.3603 13.5921 33.3013 13.673C33.1833 13.835 33.0157 14.0678 32.8148 14.3543C32.4136 14.9263 31.8771 15.7159 31.3392 16.5828C30.8031 17.4464 30.2551 18.4033 29.838 19.307C29.4371 20.1754 29.0942 21.1243 29.0942 21.9275C29.0942 24.7822 31.3834 27.0714 34.2381 27.0714C37.0927 27.0714 39.382 24.7822 39.382 21.9275C39.382 21.1243 39.0391 20.1754 38.6383 19.307C38.2212 18.4033 37.6731 17.4464 37.137 16.5828C36.599 15.7159 36.0626 14.9263 35.6615 14.3543C35.4606 14.0678 35.2929 13.835 35.1749 13.673C35.116 13.5921 35.0693 13.5287 35.0373 13.4853L35.0002 13.4353L34.9902 13.422L34.9863 13.4168C34.9862 13.4167 34.9863 13.4168 34.2381 13.9779Z" fill="#FFEAAC"/>
<path d="M8.46799 34.626H3.53799" stroke="#FFEAAC" stroke-width="3"/>
</svg>
