<svg width="500" height="500" viewBox="0 0 500 500" fill="none" xmlns="http://www.w3.org/2000/svg">
<circle cx="250" cy="250" r="226" stroke="black" stroke-width="20"/>
<path d="M237.736 98.5649C241.57 90.4256 253.021 90.0795 257.338 97.9724L268.856 119.026C271.234 123.373 276.225 125.594 281.047 124.45L304.396 118.907C313.149 116.829 320.559 125.566 317.08 133.863L307.801 155.994C305.885 160.564 307.261 165.851 311.162 168.907L330.053 183.706C337.135 189.255 334.924 200.496 326.269 202.949L303.18 209.492C298.412 210.843 295.137 215.216 295.18 220.171L295.388 244.168C295.466 253.164 285.299 258.444 277.984 253.207L258.472 239.235C254.444 236.35 248.983 236.515 245.136 239.638L226.504 254.762C219.519 260.432 209.051 255.776 208.586 246.791L207.344 222.825C207.088 217.877 203.554 213.71 198.713 212.65L175.272 207.512C166.484 205.587 163.598 194.499 170.332 188.534L188.295 172.62C192.005 169.335 193.059 163.974 190.87 159.528L180.271 137.998C176.297 129.926 183.166 120.758 192.029 122.303L215.671 126.425C220.552 127.277 225.401 124.759 227.512 120.276L237.736 98.5649Z" fill="black"/>
<circle cx="249.946" cy="177.946" r="49" fill="white"/>
<path d="M92.5 403L192 279.5L246 368.5M300.848 463.5L246 368.5M246 368.5L317 288.5L401 410" stroke="black" stroke-width="19"/>
</svg>
