<svg width="60" height="60" viewBox="0 0 60 60" fill="none" xmlns="http://www.w3.org/2000/svg">
<path d="M30 57.12C44.978 57.12 57.12 44.978 57.12 30C57.12 15.022 44.978 2.88 30 2.88C15.022 2.88 2.88 15.022 2.88 30C2.88 44.978 15.022 57.12 30 57.12Z" stroke="#FFEAAC" stroke-width="3"/>
<path d="M26.9163 16.1779C27.0654 15.3208 28.1123 15.0055 28.7083 15.6383L30.2985 17.3259C30.6268 17.6744 31.1427 17.7591 31.5584 17.5329L33.5717 16.4369C34.3264 16.0261 35.2287 16.6615 35.1163 17.5246L34.8164 19.8269C34.7545 20.3023 35.014 20.7635 35.4504 20.9534L37.5632 21.8731C38.3553 22.2179 38.4337 23.3255 37.6974 23.7691L35.7332 24.9523C35.3276 25.1966 35.1355 25.6871 35.2638 26.1502L35.8853 28.393C36.1183 29.2337 35.3136 29.9794 34.5078 29.6695L32.3585 28.8427C31.9148 28.6719 31.4155 28.8223 31.1393 29.2098L29.8013 31.0868C29.2998 31.7904 28.2179 31.6128 27.9496 30.7827L27.2335 28.5684C27.0857 28.1112 26.6554 27.8082 26.1825 27.8285L23.8927 27.9262C23.0343 27.9629 22.49 26.9955 22.961 26.2705L24.2174 24.3361C24.477 23.9367 24.4396 23.4085 24.1262 23.0461L22.6088 21.2911C22.0398 20.6332 22.4429 19.6047 23.2987 19.5305L25.5815 19.3327C26.0529 19.2919 26.4367 18.9363 26.5187 18.4642L26.9163 16.1779Z" fill="#FFEAAC"/>
<path d="M11.1 48.36L23.04 33.54L29.52 44.22M29.52 44.22L36.1018 55.62M29.52 44.22L38.04 34.62L48.12 49.2" stroke="#FFEAAC" stroke-width="3"/>
</svg>
