<svg width="500" height="500" viewBox="0 0 500 500" fill="none" xmlns="http://www.w3.org/2000/svg">
<circle cx="250" cy="250" r="226" stroke="black" stroke-width="20"/>
<path fill-rule="evenodd" clip-rule="evenodd" d="M178.825 273.487C178.826 273.488 178.826 273.488 177.375 281.419L178.825 273.487L178.968 273.513L179.109 273.544L232.664 285.334L233.01 285.41L233.343 285.514L233.355 285.518L233.435 285.543L233.809 285.655C234.151 285.755 234.667 285.904 235.334 286.085C236.671 286.449 238.591 286.938 240.882 287.428C245.532 288.424 251.396 289.355 256.871 289.355C261.839 289.355 267.052 291.161 269.869 296.222C272.306 300.601 271.733 305.41 270.828 308.71C269.738 312.691 267.52 316.857 264.702 320.433C268.783 318.918 273.246 317.123 278.036 315.196L278.547 314.99C291.645 309.716 307.158 303.47 320.849 301.248C336.426 298.72 347.826 304.241 353.031 314.212C357.683 323.121 356.592 334.817 349.616 341.837C347.874 343.589 345.223 345.426 342.565 347.118C339.724 348.925 336.226 350.968 332.337 353.132C324.55 357.466 314.91 362.448 305.231 367.265C286.063 376.805 265.975 386.079 259.597 388.371C248.691 392.29 236.007 391.035 224.351 389.88C223.995 389.845 223.64 389.81 223.286 389.775C219.805 389.431 216.323 389.088 212.76 388.823C197.215 387.668 185.302 383.953 174.292 380.518L174.097 380.457C162.252 376.763 151.428 373.414 136.891 372.84C134.904 372.762 130.851 372.822 126.086 372.949C123.383 383.354 113.927 391.036 102.675 391.036H89.1273C75.7689 391.036 64.9397 380.206 64.9397 366.848V296.052C64.9397 282.693 75.7688 271.865 89.1272 271.865H102.675C111.36 271.865 118.97 276.438 123.236 283.308C133.487 279.671 144.603 275.642 148.143 274.058C151.371 272.614 155.102 272.124 158.209 271.948C161.477 271.762 164.869 271.89 167.84 272.116C170.837 272.343 173.556 272.683 175.521 272.963C176.508 273.104 177.314 273.231 177.883 273.325C178.168 273.372 178.394 273.411 178.553 273.439L178.742 273.472L178.797 273.482L178.815 273.485L178.825 273.487ZM195.785 325.206L194.365 333.143L195.881 317.144L239.116 317.658L239.215 317.659C239.251 317.657 239.312 317.653 239.398 317.646C239.696 317.619 240.292 317.544 241.134 317.33C242.802 316.906 245.528 315.912 248.897 313.552C250.059 312.737 251.47 311.318 252.752 309.491C253.743 308.076 254.484 306.664 254.945 305.452C248.52 305.267 242.218 304.206 237.505 303.196C234.879 302.634 232.669 302.072 231.102 301.645C230.318 301.432 229.691 301.252 229.251 301.122C229.108 301.08 228.985 301.043 228.882 301.012L175.803 289.328L175.781 289.324C175.668 289.304 175.49 289.274 175.256 289.235C174.79 289.158 174.099 289.049 173.242 288.926C171.519 288.681 169.166 288.388 166.619 288.194C164.047 287.999 161.424 287.916 159.122 288.047C156.659 288.186 155.264 288.538 154.727 288.778C149.529 291.103 132.465 297.17 121.27 301.102L112.157 304.302L110.637 294.764C110.025 290.925 106.686 287.99 102.675 287.99H89.1272C84.6744 287.99 81.0647 291.599 81.0647 296.052V366.848C81.0647 371.301 84.6744 374.911 89.1273 374.911H102.675C107.128 374.911 110.738 371.301 110.738 366.848V365.109V357.319L118.523 357.051C125.814 356.8 133.877 356.584 137.528 356.728C154.298 357.391 166.876 361.314 178.684 364.997L178.898 365.064C189.958 368.513 200.347 371.732 213.956 372.743C217.728 373.023 221.385 373.384 224.827 373.724L224.868 373.728C237.967 375.019 247.035 375.751 254.144 373.196C259.482 371.278 278.723 362.446 298.047 352.829C307.614 348.067 317.011 343.208 324.496 339.042C328.243 336.956 331.439 335.084 333.907 333.514C336.557 331.828 337.829 330.822 338.179 330.47C339.571 329.069 340.571 325.187 338.738 321.675C337.459 319.224 333.797 315.483 323.432 317.165C311.702 319.069 297.767 324.635 284.058 330.154L283.888 330.222C277.109 332.951 270.368 335.665 264.403 337.632C258.636 339.534 252.46 341.146 247.19 340.834C239.604 340.385 226.227 338.417 215.118 336.641C209.483 335.741 204.299 334.867 200.526 334.218C198.638 333.894 197.102 333.626 196.035 333.438L194.803 333.221L194.479 333.163L194.395 333.148L194.373 333.144L195.785 325.206ZM255.481 303.249C255.481 303.249 255.482 303.255 255.482 303.269L255.481 303.249Z" fill="black"/>
<path fill-rule="evenodd" clip-rule="evenodd" d="M212.822 171.974L206.469 176.938L200.193 171.877L206.569 163.97L212.822 171.974ZM206.392 190.494C205.34 191.983 204.231 193.597 203.126 195.276C200.706 198.956 198.4 202.804 196.728 206.281C194.922 210.04 194.375 212.325 194.375 213.219C194.375 220.053 199.634 225.313 206.469 225.313C213.303 225.313 218.562 220.053 218.562 213.219C218.562 212.589 218.071 210.457 216.223 206.649C214.539 203.179 212.217 199.284 209.785 195.539C208.635 193.768 207.482 192.064 206.392 190.494ZM206.469 176.938C200.193 171.877 200.194 171.875 200.193 171.877L200.17 171.906L200.117 171.97L199.93 172.206C199.77 172.407 199.539 172.699 199.25 173.07C198.67 173.812 197.85 174.874 196.87 176.182C194.914 178.789 192.292 182.406 189.655 186.414C187.037 190.394 184.303 194.91 182.196 199.295C180.223 203.397 178.25 208.47 178.25 213.219C178.25 228.959 190.728 241.438 206.469 241.438C222.209 241.438 234.688 228.959 234.688 213.219C234.688 208.608 232.659 203.584 230.729 199.607C228.633 195.291 225.915 190.771 223.309 186.757C220.684 182.713 218.072 179.033 216.125 176.372C215.148 175.037 214.332 173.95 213.756 173.192C213.468 172.812 213.24 172.514 213.081 172.308L212.895 172.069L212.845 172.002L212.822 171.974C212.821 171.973 212.822 171.974 206.469 176.938Z" fill="black"/>
<path fill-rule="evenodd" clip-rule="evenodd" d="M301.606 115.662L295.156 120.499L288.706 115.662L295.156 107.062L301.606 115.662ZM295.156 134.337C291.941 138.958 287.898 144.962 283.866 151.458C279.417 158.627 275.071 166.25 271.864 173.198C268.517 180.451 266.938 185.877 266.938 189.03C266.938 204.734 279.453 217.249 295.156 217.249C310.86 217.249 323.375 204.734 323.375 189.03C323.375 185.877 321.796 180.451 318.448 173.198C315.242 166.25 310.896 158.627 306.447 151.458C302.414 144.962 298.372 138.958 295.156 134.337ZM295.156 120.499C288.706 115.662 288.707 115.661 288.706 115.662L288.672 115.707L288.587 115.822L288.267 116.253C287.99 116.627 287.589 117.173 287.08 117.871C286.063 119.267 284.618 121.274 282.886 123.744C279.428 128.675 274.803 135.482 270.166 142.955C265.544 150.4 260.82 158.649 257.224 166.44C253.768 173.926 250.812 182.106 250.812 189.03C250.812 213.64 270.547 233.374 295.156 233.374C319.765 233.374 339.5 213.64 339.5 189.03C339.5 182.106 336.544 173.926 333.089 166.44C329.493 158.649 324.768 150.4 320.147 142.955C315.509 135.482 310.885 128.675 307.427 123.744C305.695 121.274 304.249 119.267 303.232 117.871C302.724 117.173 302.322 116.627 302.046 116.253L301.726 115.822L301.64 115.707L301.606 115.662C301.605 115.661 301.606 115.662 295.156 120.499Z" fill="black"/>
<path d="M73 298.5H30.5" stroke="black" stroke-width="21"/>
</svg>
