<svg width="60" height="60" viewBox="0 0 60 60" fill="none" xmlns="http://www.w3.org/2000/svg">
<path d="M30 57.12C44.978 57.12 57.12 44.978 57.12 30C57.12 15.022 44.978 2.88 30 2.88C15.022 2.88 2.88 15.022 2.88 30C2.88 44.978 15.022 57.12 30 57.12Z" stroke="#FFEAAC" stroke-width="3"/>
<path d="M11.1 48.36L23.04 33.54L29.52 44.22M29.52 44.22L36.1018 55.62M29.52 44.22L38.04 34.62L48.12 49.2" stroke="#FFEAAC" stroke-width="3"/>
<path d="M33.6746 25.7943C30.8328 25.4748 28.5126 23.1561 28.1911 20.3149C28.1165 19.6558 28.1482 19.0163 28.268 18.4079C28.3216 18.1365 28.0439 17.9201 27.7894 18.0286C25.3782 19.0551 23.7468 21.5579 24.0324 24.4025C24.3228 27.2945 26.6903 29.6619 29.5822 29.9523C32.4275 30.2386 34.9296 28.6065 35.9561 26.1953C36.0646 25.9409 35.8482 25.6631 35.5768 25.7166C34.9698 25.8358 34.3318 25.8676 33.6746 25.7943Z" stroke="#FFEAAC" stroke-width="2"/>
</svg>
