<svg width="57" height="57" viewBox="0 0 57 57" fill="none" xmlns="http://www.w3.org/2000/svg">
<path d="M28.5 54.264C42.7291 54.264 54.264 42.7291 54.264 28.5C54.264 14.271 42.7291 2.73602 28.5 2.73602C14.2709 2.73602 2.736 14.271 2.736 28.5C2.736 42.7291 14.2709 54.264 28.5 54.264Z" stroke="#FFEAAC" stroke-width="3"/>
<path d="M44.346 38.532C45.2274 38.532 45.942 39.2465 45.942 40.128C45.942 41.0094 45.2274 41.724 44.346 41.724H10.716C9.83455 41.724 9.12 41.0094 9.12 40.128C9.12 39.2465 9.83455 38.532 10.716 38.532H44.346Z" fill="#FFEAAC"/>
<path d="M31.8633 36.3132C31.8494 35.5893 32.425 34.9912 33.1489 34.9774L40.4756 34.837C41.1995 34.8232 41.7975 35.3988 41.8114 36.1227C41.8252 36.8466 41.2497 37.4448 40.5258 37.4586L33.1991 37.5988C32.4752 37.6126 31.8771 37.0371 31.8633 36.3132Z" fill="#FFEAAC"/>
<path d="M32.7143 26.4692C28.1686 24.3996 23.4548 22.681 18.5306 21.7732C14.8441 21.0944 13.2384 25.7404 15.3949 27.7491C15.5547 28.0949 15.8012 28.4395 16.1564 28.7648C17.3677 29.8756 18.4797 31.0995 19.5404 32.3675C17.7483 32.5485 15.9444 32.6375 14.1988 32.4827C11.3477 32.2288 10.3824 36.6197 13.2597 36.8763C16.8031 37.1916 20.4001 36.8176 23.9148 36.3342C25.464 36.1214 26.7819 34.302 25.6541 32.8474C24.9919 31.9941 24.3196 31.1355 23.6303 30.2894C25.2847 30.8502 26.9132 31.4943 28.5274 32.1998C29.6845 33.6545 30.7496 35.1762 31.6943 36.7888C32.7986 38.6754 35.6182 36.7932 34.5162 34.9097C34.0194 34.0616 33.4839 33.2427 32.9243 32.4425C34.9127 31.0984 35.5291 27.7524 32.7143 26.4692Z" fill="#FFEAAC"/>
<path d="M38.4814 34.0852C40.3177 34.0852 41.8064 32.5966 41.8064 30.7602C41.8064 28.9238 40.3177 27.4351 38.4814 27.4351C36.6451 27.4351 35.1563 28.9238 35.1563 30.7602C35.1563 32.5966 36.6451 34.0852 38.4814 34.0852Z" fill="#FFEAAC"/>
</svg>
